<svg width="48" height="48" viewBox="0 0 48 48" fill="none" xmlns="http://www.w3.org/2000/svg">
<path d="M37.2364 12.442C37.6463 12.4862 38.043 12.6128 38.4028 12.8141C38.7626 13.0155 39.078 13.2874 39.33 13.6137C39.5898 13.9317 39.7808 14.3002 39.891 14.6958C40.0012 15.0915 40.0282 15.5056 39.9703 15.9122L38.2032 31.701C38.1594 32.1006 38.0375 32.4878 37.8446 32.8406C37.6491 33.203 37.3887 33.5263 37.0763 33.7946C36.8619 33.9444 36.6323 34.071 36.3912 34.1724C36.1377 34.2757 35.8766 34.3592 35.6101 34.4221V35.0623C35.6156 35.4744 35.5281 35.8824 35.354 36.256C35.18 36.6296 34.9239 36.9591 34.6049 37.22C33.9801 37.7783 33.1699 38.0841 32.332 38.0779H10.877C10.4884 38.0744 10.1047 37.9907 9.74995 37.832C9.39521 37.6734 9.07703 37.4432 8.81533 37.156C8.54323 36.8776 8.33078 36.5466 8.19097 36.1833C8.05116 35.8201 7.98693 35.4321 8.00221 35.0431V19.1327C7.99526 18.3004 8.30151 17.496 8.86015 16.879C9.12461 16.5701 9.45393 16.3233 9.82467 16.1562C10.1954 15.9891 10.5984 15.9058 11.005 15.9122H12.1895L12.5993 12.7109C12.6392 12.3145 12.7613 11.9307 12.9578 11.5841C13.1528 11.236 13.4137 10.9294 13.7261 10.6813C14.0338 10.415 14.3968 10.2203 14.7889 10.1115C15.1838 9.99614 15.5992 9.9699 16.0054 10.0346L37.2364 12.442ZM34.0351 19.1327C34.0277 18.914 33.9769 18.6989 33.8857 18.4999C33.7945 18.301 33.6646 18.1222 33.5037 17.9738C33.183 17.6763 32.7687 17.4997 32.332 17.4744H11.005C10.8014 17.4711 10.5999 17.5165 10.4172 17.6067C10.2346 17.6969 10.0762 17.8293 9.95499 17.993C9.70305 18.3197 9.56578 18.7202 9.56443 19.1327V30.2284L14.6865 26.4829C15.3189 26.0197 16.0938 25.7931 16.8762 25.8426C17.6593 25.8539 18.4138 26.1393 19.0082 26.6493L23.2916 30.4332C23.601 30.7021 23.9901 30.8618 24.3992 30.8878C24.8082 30.9215 25.2175 30.8275 25.5709 30.6189L34.0479 25.6825L34.0351 19.1327ZM34.0351 35.0431V27.5137L26.352 31.9186C26.0757 32.091 25.776 32.2226 25.462 32.3092C25.1537 32.4053 24.8301 32.4422 24.5081 32.418C24.0863 32.4219 23.6674 32.3481 23.2724 32.2004C22.8812 32.0472 22.5178 31.8309 22.1967 31.5601L17.9774 27.8402C17.653 27.5366 17.2305 27.3594 16.7865 27.3408C16.3488 27.3159 15.9167 27.4501 15.5701 27.7186L9.56443 32.1683V35.1712C9.56215 35.3531 9.59865 35.5334 9.67152 35.7001C9.74438 35.8668 9.85193 36.0161 9.987 36.1379C10.1186 36.2716 10.2781 36.3748 10.454 36.4401C10.6299 36.5053 10.818 36.5312 11.005 36.5157H32.332C32.7658 36.5163 33.1865 36.367 33.5229 36.0931C33.6878 35.9727 33.8215 35.8145 33.9128 35.6318C34.0041 35.4492 34.0505 35.2473 34.0479 35.0431H34.0351ZM38.4529 15.6945C38.4742 15.4921 38.4534 15.2875 38.3917 15.0935C38.33 14.8996 38.2287 14.7205 38.0943 14.5677C37.9651 14.4091 37.8059 14.2777 37.6256 14.181C37.4454 14.0843 37.2478 14.0242 37.0443 14.0042L15.8518 11.5649C15.637 11.5432 15.4201 11.5606 15.2115 11.6161C15.0155 11.6692 14.8309 11.7582 14.6673 11.8786C14.5184 12.0077 14.3928 12.1615 14.2959 12.3332C14.1932 12.5017 14.1175 12.6853 14.0718 12.8774L13.7645 15.9122H32.332C32.7571 15.9139 33.1776 16.0003 33.5689 16.1663C33.9602 16.3323 34.3146 16.5746 34.6113 16.879C35.2233 17.4733 35.5832 18.2803 35.6165 19.1327V32.8598C35.6165 32.815 35.6741 32.7766 35.8022 32.7318C35.9208 32.6974 36.0287 32.6335 36.1159 32.5461C36.2772 32.4242 36.4049 32.2634 36.4873 32.0787C36.5684 31.9018 36.612 31.7099 36.6153 31.5153L38.4529 15.7265V15.6945ZM26.5249 20.887C26.8322 21.1848 27.0755 21.5423 27.2395 21.9376C27.4036 22.3329 27.485 22.7576 27.4788 23.1855C27.4856 23.6183 27.4046 24.048 27.2406 24.4485C27.0767 24.8491 26.8332 25.2123 26.5249 25.5161C26.2271 25.8235 25.8695 26.0667 25.4742 26.2307C25.079 26.3948 24.6543 26.4762 24.2263 26.4701C23.7941 26.4743 23.3654 26.3923 22.9653 26.2287C22.5652 26.065 22.2019 25.8231 21.8965 25.5172C21.5912 25.2113 21.35 24.8474 21.1872 24.447C21.0243 24.0466 20.9431 23.6177 20.9482 23.1855C20.9408 22.758 21.0211 22.3335 21.1841 21.9382C21.347 21.5429 21.5893 21.1851 21.8958 20.887C22.1996 20.5787 22.5628 20.3352 22.9633 20.1712C23.3639 20.0073 23.7936 19.9262 24.2263 19.933C24.6543 19.9268 25.079 20.0083 25.4742 20.1724C25.8695 20.3364 26.2271 20.5796 26.5249 20.887ZM25.4172 24.3828C25.5793 24.225 25.7073 24.0357 25.7932 23.8264C25.8791 23.6171 25.9211 23.3925 25.9166 23.1663C25.9133 22.7191 25.7341 22.2911 25.4178 21.9748C25.1016 21.6585 24.6736 21.4794 24.2263 21.476C24.0002 21.4716 23.7755 21.5136 23.5663 21.5995C23.357 21.6854 23.1676 21.8133 23.0098 21.9754C22.8497 22.1293 22.7228 22.3144 22.6369 22.5192C22.551 22.724 22.508 22.9442 22.5104 23.1663C22.5087 23.3921 22.552 23.616 22.6376 23.825C22.7232 24.0339 22.8495 24.2238 23.0092 24.3834C23.1689 24.5431 23.3587 24.6694 23.5677 24.7551C23.7766 24.8407 24.0005 24.8839 24.2263 24.8822C24.4484 24.8847 24.6687 24.8417 24.8735 24.7558C25.0783 24.6699 25.2633 24.543 25.4172 24.3828Z" fill="#161616"/>
</svg>
