<svg width="100" height="100" viewBox="0 0 100 100" fill="none" xmlns="http://www.w3.org/2000/svg">
<path d="M27.0835 39.583V75.6941C27.0835 78.7497 29.5835 81.2497 32.6391 81.2497H67.3613C70.4168 81.2497 72.9168 78.7497 72.9168 75.6941V39.583H27.0835Z" fill="#F3F3F1"/>
<path d="M78.4723 39.583H21.5278V32.6386C21.5278 29.5691 24.0139 27.083 27.0834 27.083H72.9167C75.9862 27.083 78.4723 29.5691 78.4723 32.6386V39.583Z" fill="#6180E4"/>
<path d="M33.3335 75.6941V39.583H27.0835V75.6941C27.0835 78.7497 29.5835 81.2497 32.6391 81.2497H38.8891C35.8335 81.2497 33.3335 78.7497 33.3335 75.6941Z" fill="#D5DBE1"/>
<path d="M33.3334 27.083H27.0834C24.0139 27.083 21.5278 29.5691 21.5278 32.6386V39.583H27.7778V32.6386C27.7778 29.5691 30.2639 27.083 33.3334 27.083Z" fill="#395BCA"/>
<path d="M11.2124 13.2749L13.1766 11.3107L17.105 15.2391L15.1408 17.2033L11.2124 13.2749Z" fill="#A4AFC1"/>
<path d="M10.7212 26.5273L14.6496 22.599L16.6138 24.5632L12.6854 28.4915L10.7212 26.5273Z" fill="#A4AFC1"/>
<path d="M22.0137 15.2368L25.942 11.3084L27.9062 13.2726L23.9779 17.201L22.0137 15.2368Z" fill="#A4AFC1"/>
<path d="M77.0832 17.0692C74.7859 17.0692 72.9165 15.1997 72.9165 12.9025C72.9165 10.6053 74.7859 8.73584 77.0832 8.73584C79.3804 8.73584 81.2498 10.6053 81.2498 12.9025C81.2498 15.1997 79.3804 17.0692 77.0832 17.0692ZM77.0832 11.5136C76.3165 11.5136 75.6943 12.1358 75.6943 12.9025C75.6943 13.6692 76.3165 14.2914 77.0832 14.2914C77.8498 14.2914 78.4721 13.6692 78.4721 12.9025C78.4721 12.1358 77.8498 11.5136 77.0832 11.5136Z" fill="#A4AFC1"/>
<path d="M67.3611 83.333H32.6389C28.425 83.333 25 79.908 25 75.6941V39.583H29.1667V75.6941C29.1667 77.608 30.725 79.1663 32.6389 79.1663H67.3611C69.275 79.1663 70.8333 77.608 70.8333 75.6941V39.583H75V75.6941C75 79.908 71.575 83.333 67.3611 83.333Z" fill="#353535"/>
<path d="M78.4721 41.6667H65.2777V37.5H76.3888V32.6389C76.3888 30.725 74.8305 29.1667 72.9166 29.1667H27.0832C25.1693 29.1667 23.611 30.725 23.611 32.6389V37.5H61.111V41.6667H21.5277C20.3777 41.6667 19.4443 40.7333 19.4443 39.5833V32.6389C19.4443 28.425 22.8693 25 27.0832 25H72.9166C77.1305 25 80.5555 28.425 80.5555 32.6389V39.5833C80.5555 40.7333 79.6221 41.6667 78.4721 41.6667Z" fill="#353535"/>
<path d="M63.8891 27.0832H59.7224V21.5276C59.7224 21.1443 59.4113 20.8332 59.028 20.8332H40.9724C40.5891 20.8332 40.278 21.1443 40.278 21.5276V27.0832H36.1113V21.5276C36.1113 18.8471 38.2919 16.6665 40.9724 16.6665H59.028C61.7086 16.6665 63.8891 18.8471 63.8891 21.5276V27.0832Z" fill="#353535"/>
<path d="M47.917 52.083H52.0837V70.1385H47.917V52.083Z" fill="#353535"/>
<path d="M36.1113 52.083H40.278V70.1385H36.1113V52.083Z" fill="#353535"/>
<path d="M59.7222 52.083H63.8888V70.1385H59.7222V52.083Z" fill="#353535"/>
<path d="M5.55566 79.1665H94.4445V83.3331H5.55566V79.1665Z" fill="#353535"/>
</svg>
