<svg width="110" height="108" viewBox="0 0 110 108" fill="none" xmlns="http://www.w3.org/2000/svg">
<path d="M77.3425 12.7676H80.3981V18.8787H77.3425V12.7676Z" fill="#A4AFC1"/>
<path d="M84.2175 21.9341H90.3286V24.9896H84.2175V21.9341Z" fill="#A4AFC1"/>
<path d="M77.1528 28.5558L48.8889 38.4863L20.625 28.5558L48.8889 18.6558L77.1528 28.5558Z" fill="#F3F3F1"/>
<path d="M77.1526 28.5557V65.2223L48.8887 75.1529V38.4862L77.1526 28.5557Z" fill="#F3F3F1"/>
<path d="M48.8889 38.4862V75.1529L20.625 65.2223V28.5557L48.8889 38.4862Z" fill="#F3F3F1"/>
<path d="M71.8058 87.3752C81.5091 87.3752 89.3752 79.5091 89.3752 69.8058C89.3752 60.1024 81.5091 52.2363 71.8058 52.2363C62.1024 52.2363 54.2363 60.1024 54.2363 69.8058C54.2363 79.5091 62.1024 87.3752 71.8058 87.3752Z" fill="#6180E4"/>
<path d="M55.7637 38.4862L77.1526 30.9726V28.5557L48.8887 38.4862V75.1529L55.7637 72.736V38.4862Z" fill="#D5DBE1"/>
<path d="M27.5 65.2223V30.9726L20.625 28.5557V65.2223L48.8889 75.1529V72.736L27.5 65.2223Z" fill="#D5DBE1"/>
<path d="M61.1113 69.8058C61.1113 61.2808 67.1858 54.1766 75.2433 52.5785C74.1311 52.3585 72.9822 52.2363 71.8058 52.2363C62.1013 52.2363 54.2363 60.1013 54.2363 69.8058C54.2363 79.5102 62.1013 87.3752 71.8058 87.3752C72.9822 87.3752 74.1311 87.2561 75.2433 87.033C67.1858 85.435 61.1113 78.3308 61.1113 69.8058Z" fill="#395BCA"/>
<path d="M71.8057 80.4999C71.219 80.4999 70.6323 80.2769 70.1862 79.8277L61.6887 71.3333L64.9307 68.0913L71.8057 74.9663L78.6807 68.0913L81.9226 71.3333L73.4282 79.8277C72.979 80.2769 72.3923 80.4999 71.8057 80.4999Z" fill="white"/>
<path d="M69.5137 61.4023H74.097V76.6801H69.5137V61.4023Z" fill="white"/>
<path d="M71.8054 89.6666C60.8543 89.6666 51.9443 80.7566 51.9443 69.8054C51.9443 58.8543 60.8543 49.9443 71.8054 49.9443C82.7566 49.9443 91.6666 58.8543 91.6666 69.8054C91.6666 80.7566 82.7566 89.6666 71.8054 89.6666ZM71.8054 54.5277C63.3813 54.5277 56.5277 61.3813 56.5277 69.8054C56.5277 78.2296 63.3813 85.0832 71.8054 85.0832C80.2296 85.0832 87.0832 78.2296 87.0832 69.8054C87.0832 61.3813 80.2296 54.5277 71.8054 54.5277Z" fill="#353535"/>
<path d="M48.889 40.7778C48.6324 40.7778 48.3757 40.735 48.1282 40.6495L19.8643 30.7189C18.9477 30.3981 18.3335 29.5272 18.3335 28.5556C18.3335 27.5839 18.9477 26.7131 19.8643 26.3922L48.1282 16.4617C48.6232 16.2875 49.1549 16.2875 49.6499 16.4617L77.9138 26.3922C78.8304 26.7131 79.4446 27.5839 79.4446 28.5556C79.4446 29.5272 78.8304 30.3981 77.9138 30.7189L49.6499 40.6495C49.4024 40.735 49.1457 40.7778 48.889 40.7778ZM27.5399 28.5556L48.889 36.057L70.2382 28.5556L48.889 21.0542L27.5399 28.5556Z" fill="#353535"/>
<path d="M74.8613 28.5557H79.4447V41.5418H74.8613V28.5557Z" fill="#353535"/>
<path d="M43.8229 75.7885L19.8674 67.3857C18.9477 67.0649 18.3335 66.194 18.3335 65.2224V28.5557H22.9168V63.5999L45.3385 71.4618L43.8229 75.7885Z" fill="#353535"/>
<path d="M46.5972 38.4863H51.1805V53.7641H46.5972V38.4863Z" fill="#353535"/>
</svg>
