<svg width="30" height="30" viewBox="0 0 30 30" fill="none" xmlns="http://www.w3.org/2000/svg">
<path fill-rule="evenodd" clip-rule="evenodd" d="M4.375 15C4.375 9.13197 9.13197 4.375 15 4.375C20.868 4.375 25.625 9.13197 25.625 15C25.625 20.868 20.868 25.625 15 25.625C9.13197 25.625 4.375 20.868 4.375 15ZM15 9.6875C15.489 9.6875 15.8854 10.0839 15.8854 10.5729V11.4583C15.8854 11.9473 15.489 12.3438 15 12.3438C14.511 12.3438 14.1146 11.9473 14.1146 11.4583V10.5729C14.1146 10.0839 14.511 9.6875 15 9.6875ZM15 13.2292C15.489 13.2292 15.8854 13.6256 15.8854 14.1146V19.4271C15.8854 19.9161 15.489 20.3125 15 20.3125C14.511 20.3125 14.1146 19.9161 14.1146 19.4271V14.1146C14.1146 13.6256 14.511 13.2292 15 13.2292Z" fill="#3E64DE"/>
</svg>
