<svg width="80" height="80" viewBox="0 0 80 80" fill="none" xmlns="http://www.w3.org/2000/svg">
<path d="M63.4322 30.486C63.2652 18.289 53.2913 8.41748 41.0552 8.41748C35.6123 8.41748 30.3684 10.3975 26.2899 13.9928C22.65 17.2014 20.16 21.4892 19.1739 26.1968C19.1018 26.196 19.0304 26.1954 18.9592 26.1954C8.5053 26.1954 0 34.7006 0 45.1546C0 55.6086 8.5053 64.1138 18.9593 64.1138H32.2004C33.1424 64.1138 33.9065 63.35 33.9065 62.4077C33.9065 61.4653 33.1424 60.7016 32.2004 60.7016H18.9593C10.3865 60.7016 3.41218 53.7272 3.41218 45.1546C3.41218 36.582 10.3865 29.6076 18.9593 29.6076C19.4161 29.6076 19.8989 29.6321 20.4356 29.6826C21.3453 29.7677 22.162 29.1207 22.2859 28.2145C22.9003 23.7114 25.1235 19.5696 28.5464 16.5523C32.0012 13.5067 36.4435 11.8295 41.0551 11.8295C51.5136 11.8295 60.0221 20.3381 60.0221 30.7965C60.0221 31.1731 59.9941 31.5612 59.9646 31.9721L59.9519 32.1468C59.9164 32.6487 60.1043 33.1407 60.4655 33.4912C60.8263 33.8416 61.323 34.0148 61.8244 33.9646C62.2782 33.9188 62.736 33.8959 63.185 33.8959C70.5752 33.8959 76.5878 39.9084 76.5878 47.2987C76.5878 54.6888 70.5753 60.7013 63.185 60.7013H49.2615C48.3194 60.7013 47.5554 61.465 47.5554 62.4074C47.5554 63.3497 48.3194 64.1135 49.2615 64.1135H63.185C72.4567 64.1135 80 56.5705 80 47.2987C79.9998 38.1101 72.5905 30.6187 63.4322 30.486Z" fill="#3E64DE"/>
<path d="M41.0554 16.4365C33.9213 16.4365 27.8145 21.7679 26.8501 28.8376C26.7227 29.7712 27.3765 30.6313 28.3099 30.7587C28.3882 30.7693 28.4659 30.7746 28.5426 30.7746C29.3824 30.7746 30.1143 30.1543 30.2307 29.299C30.9655 23.9115 35.6191 19.8487 41.0552 19.8487C41.9975 19.8487 42.7613 19.085 42.7613 18.1426C42.7615 17.2004 41.9975 16.4365 41.0554 16.4365Z" fill="#3E64DE"/>
<path d="M48.814 50.008L42.608 44.4642C41.5382 43.508 39.9241 43.5081 38.8538 44.4641L32.6479 50.0081C31.9451 50.6358 31.8845 51.7144 32.5121 52.4172C33.1398 53.1197 34.2182 53.1808 34.9212 52.5529L39.0249 48.887V69.8762C39.0249 70.8185 39.7887 71.5823 40.731 71.5823C41.6732 71.5823 42.4371 70.8185 42.4371 69.8762V48.8867L46.541 52.5528C46.8663 52.8436 47.2724 52.9865 47.6769 52.9865C48.146 52.9865 48.6129 52.7945 48.95 52.417C49.5774 51.7142 49.5166 50.6358 48.814 50.008Z" fill="#3E64DE"/>
</svg>
