<svg xmlns="http://www.w3.org/2000/svg" width="48" height="48" fill="none" xmlns:v="https://vecta.io/nano"><path fill-rule="evenodd" d="M23.963 21.333H24c.288 0 .563-.124.752-.34l2.035-2.325h2.88c1.287 0 2.333-1.047 2.333-2.333v-6C32 9.047 30.953 8 29.667 8H18.333C17.047 8 16 9.047 16 10.333v6c0 1.287 1.047 2.333 2.333 2.333H21.5l1.7 2.267c.18.24.46.388.763.4zm-9.963-5v-6c0-.347.04-.68.133-1h-3.8C9.053 9.333 8 10.387 8 11.667v6C8 18.946 9.053 20 10.333 20h.493l1.707 2.267a1.03 1.03 0 0 0 .76.4h.04a.95.95 0 0 0 .747-.347l2-2.28c-1.24-.773-2.08-2.147-2.08-3.707zm23.666-7h-3.8a3.55 3.55 0 0 1 .133 1v6c0 1.56-.84 2.933-2.08 3.707l2 2.28a.95.95 0 0 0 .747.347h.04a1.03 1.03 0 0 0 .76-.4L37.16 20h.507C38.946 20 40 18.946 40 17.666v-6c0-1.28-1.053-2.333-2.333-2.333zM13.333 30.666C14.806 30.666 16 29.473 16 28s-1.194-2.667-2.667-2.667-2.667 1.194-2.667 2.667 1.194 2.667 2.667 2.667zM14.667 37c0-1.827.88-3.453 2.227-4.467C16.347 32.2 15.693 32 15 32h-3.333C9.64 32 8 33.64 8 35.667v.667a1.01 1.01 0 0 0 1 1h5.667V37zm20-6.333c1.473 0 2.667-1.194 2.667-2.667s-1.194-2.667-2.667-2.667S32 26.527 32 28s1.194 2.667 2.667 2.667zm5.33 5.667v-.667c0-2.027-1.64-3.667-3.667-3.667h-3.333c-.693 0-1.347.2-1.893.533 1.347 1.013 2.227 2.64 2.227 4.467v.333h5.667a1.01 1.01 0 0 0 1-1zm-15.998-5a4 4 0 1 0 0-8 4 4 0 1 0 0 8zm-3.667 2h7.333A3.67 3.67 0 0 1 31.333 37v2a1 1 0 0 1-1 1H17.666a1 1 0 0 1-1-1v-2a3.67 3.67 0 0 1 3.667-3.667z" fill="#fff"/></svg>