<?xml version="1.0" encoding="UTF-8"?>
<svg width="85px" height="123px" viewBox="0 0 85 123" version="1.1" xmlns="http://www.w3.org/2000/svg" xmlns:xlink="http://www.w3.org/1999/xlink">
    <!-- Generator: Sketch 52.6 (67491) - http://www.bohemiancoding.com/sketch -->
    <title>traffic-light</title>
    <desc>Created with Sketch.</desc>
    <g id="Page-1" stroke="none" stroke-width="1" fill="none" fill-rule="evenodd">
        <g id="content-drip-message" transform="translate(-595.000000, -573.000000)" fill-rule="nonzero">
            <g id="traffic-light" transform="translate(595.000000, 573.000000)">
                <path d="M66.625,121.699444 L18.375,121.699444 C15.2911111,121.699444 12.7911111,119.199444 12.7911111,116.115556 L12.7911111,6.695 C12.7911111,3.61111111 15.2911111,1.11111111 18.375,1.11111111 L66.625,1.11111111 C69.7088889,1.11111111 72.2088889,3.61111111 72.2088889,6.695 L72.2088889,116.115 C72.2088889,119.199444 69.7088889,121.699444 66.625,121.699444 Z" id="Path" fill="#F6F6F6"></path>
                <circle id="Oval" fill="#F8A201" transform="translate(42.543925, 61.422248) rotate(-79.982066) translate(-42.543925, -61.422248) " cx="42.543925" cy="61.4222478" r="15.0454341"></circle>
                <path d="M66.625,1.11111111 L62.1577778,1.11111111 C65.2416667,1.11111111 67.7416667,3.61111111 67.7416667,6.695 L67.7416667,116.115 C67.7416667,119.198889 65.2416667,121.698889 62.1577778,121.698889 L66.625,121.698889 C69.7088889,121.698889 72.2088889,119.198889 72.2088889,116.115 L72.2088889,6.695 C72.2088889,3.61111111 69.7088889,1.11111111 66.625,1.11111111 Z" id="Path" fill="#E1E1E1"></path>
                <path d="M18.375,121.698889 L22.8422222,121.698889 C19.7583333,121.698889 17.2583333,119.198889 17.2583333,116.115 L17.2583333,6.695 C17.2583333,3.61111111 19.7583333,1.11111111 22.8422222,1.11111111 L18.375,1.11111111 C15.2911111,1.11111111 12.7911111,3.61111111 12.7911111,6.695 L12.7911111,116.115 C12.7911111,119.198889 15.2911111,121.698889 18.375,121.698889 Z" id="Path" fill="#FFFFFF"></path>
                <path d="M12.7911111,9.02722222 L3.93611111,9.02722222 C1.41111111,9.02722222 0.183333333,12.1127778 2.01777778,13.8477778 L12.7911111,24.0688889 L12.7911111,9.02722222 Z" id="Path" fill="#FFFFFF"></path>
                <path d="M12.7911111,46.3633333 L3.93611111,46.3633333 C1.41111111,46.3633333 0.183333333,49.4488889 2.01777778,51.1838889 L12.7911111,61.405 L12.7911111,46.3633333 Z" id="Path" fill="#FFFFFF"></path>
                <path d="M12.7911111,83.7 L3.93611111,83.7 C1.41111111,83.7 0.183333333,86.7855556 2.01777778,88.5205556 L12.7911111,98.7416667 L12.7911111,83.7 Z" id="Path" fill="#FFFFFF"></path>
                <g id="Group" fill="#8C94A8">
                    <path d="M66.625,122.810556 L18.375,122.810556 C14.6827778,122.810556 11.6794444,119.807222 11.6794444,116.115556 L11.6794444,6.695 C11.6794444,3.00333333 14.6833333,1.59872116e-14 18.375,1.59872116e-14 L66.625,1.59872116e-14 C70.3172222,1.59872116e-14 73.3205556,3.00333333 73.3205556,6.695 L73.3205556,116.115 C73.3205556,119.806667 70.3166667,122.810556 66.625,122.810556 Z M18.375,2.22222222 C15.9088889,2.22222222 13.9016667,4.22888889 13.9016667,6.695 L13.9016667,116.115 C13.9016667,118.581111 15.9083333,120.587778 18.375,120.587778 L66.625,120.587778 C69.0911111,120.587778 71.0983333,118.581111 71.0983333,116.115 L71.0983333,6.695 C71.0983333,4.22888889 69.0916667,2.22222222 66.625,2.22222222 L18.375,2.22222222 Z" id="Shape"></path>
                    <path d="M17.2577778,29.1783333 C16.6444444,29.1783333 16.1466667,28.6805556 16.1466667,28.0672222 L16.1466667,21.4005556 C16.1466667,20.7872222 16.6444444,20.2894444 17.2577778,20.2894444 C17.8711111,20.2894444 18.3688889,20.7872222 18.3688889,21.4005556 L18.3688889,28.0672222 C18.3688889,28.6811111 17.8716667,29.1783333 17.2577778,29.1783333 Z" id="Path"></path>
                    <path d="M12.7905556,25.1794444 C12.5116667,25.1794444 12.2366667,25.0744444 12.0255556,24.8744444 L1.25277778,14.6533333 C0.0855555556,13.55 -0.285555556,11.87 0.309444444,10.3761111 C0.904444444,8.88166667 2.32777778,7.91611111 3.93611111,7.91611111 L12.7905556,7.91611111 C13.4038889,7.91611111 13.9016667,8.41388889 13.9016667,9.02722222 L13.9016667,24.0688889 C13.9016667,24.5127778 13.6372222,24.9144444 13.2294444,25.0894444 C13.0883333,25.15 12.9388889,25.1794444 12.7905556,25.1794444 Z M3.93611111,10.1383333 C2.87833333,10.1383333 2.47333333,10.9488889 2.37388889,11.1977778 C2.275,11.4461111 2.01222222,12.3133333 2.78055556,13.04 L11.6794444,21.4827778 L11.6794444,10.1383333 L3.93611111,10.1383333 Z" id="Shape"></path>
                    <path d="M12.7905556,62.5161111 C12.5116667,62.5161111 12.2366667,62.4111111 12.0255556,62.2111111 L1.25277778,51.99 C0.0855555556,50.8866667 -0.285555556,49.2066667 0.309444444,47.7127778 C0.904444444,46.2183333 2.32777778,45.2527778 3.93611111,45.2527778 L12.7905556,45.2527778 C13.4038889,45.2527778 13.9016667,45.7505556 13.9016667,46.3638889 L13.9016667,61.4055556 C13.9016667,61.8494444 13.6372222,62.2511111 13.2294444,62.4261111 C13.0883333,62.4866667 12.9388889,62.5161111 12.7905556,62.5161111 Z M3.93611111,47.475 C2.87833333,47.475 2.47333333,48.2855556 2.37388889,48.5344444 C2.275,48.7827778 2.01222222,49.65 2.78055556,50.3766667 L11.6794444,58.8194444 L11.6794444,47.475 L3.93611111,47.475 Z" id="Shape"></path>
                    <path d="M12.7905556,99.8527778 C12.5116667,99.8527778 12.2366667,99.7477778 12.0255556,99.5477778 L1.25222222,89.3266667 C0.085,88.2233333 -0.286111111,86.5433333 0.309444444,85.0488889 C0.903888889,83.5544444 2.32722222,82.5888889 3.93555556,82.5888889 L12.79,82.5888889 C13.4033333,82.5888889 13.9011111,83.0866667 13.9011111,83.7 L13.9011111,98.7416667 C13.9011111,99.1855556 13.6366667,99.5872222 13.2288889,99.7622222 C13.0883333,99.8233333 12.9388889,99.8527778 12.7905556,99.8527778 Z M3.93611111,84.8111111 C2.87833333,84.8111111 2.47333333,85.6222222 2.37388889,85.8705556 C2.275,86.1188889 2.01222222,86.9866667 2.78055556,87.7133333 L11.6794444,96.1561111 L11.6794444,84.8111111 L3.93611111,84.8111111 Z" id="Shape"></path>
                </g>
                <path d="M72.2088889,9.02722222 L81.0638889,9.02722222 C83.5888889,9.02722222 84.8166667,12.1127778 82.9822222,13.8477778 L72.2088889,24.0688889 L72.2088889,9.02722222 Z" id="Path" fill="#F6F6F6"></path>
                <path d="M72.2088889,46.3633333 L81.0638889,46.3633333 C83.5888889,46.3633333 84.8166667,49.4488889 82.9822222,51.1838889 L72.2088889,61.405 L72.2088889,46.3633333 Z" id="Path" fill="#F6F6F6"></path>
                <path d="M72.2088889,83.7 L81.0638889,83.7 C83.5888889,83.7 84.8166667,86.7855556 82.9822222,88.5205556 L72.2088889,98.7416667 L72.2088889,83.7 Z" id="Path" fill="#F6F6F6"></path>
                <path d="M72.2094444,25.1794444 C72.0611111,25.1794444 71.9122222,25.15 71.7705556,25.0888889 C71.3627778,24.9138889 71.0983333,24.5122222 71.0983333,24.0683333 L71.0983333,9.02722222 C71.0983333,8.41388889 71.5961111,7.91611111 72.2094444,7.91611111 L81.0638889,7.91611111 C82.6727778,7.91611111 84.0955556,8.88166667 84.6905556,10.3761111 C85.285,11.87 84.9138889,13.55 83.7455556,14.655 L72.9738889,24.875 C72.7633333,25.0744444 72.4883333,25.1794444 72.2094444,25.1794444 Z M73.3205556,10.1383333 L73.3205556,21.4827778 L82.2177778,13.0416667 C82.9883333,12.3133333 82.725,11.4461111 82.6261111,11.1977778 C82.5266667,10.9488889 82.1222222,10.1383333 81.0638889,10.1383333 L73.3205556,10.1383333 Z" id="Shape" fill="#8C94A8"></path>
                <path d="M72.2094444,62.5161111 C72.0611111,62.5161111 71.9122222,62.4866667 71.7705556,62.4255556 C71.3627778,62.2505556 71.0983333,61.8488889 71.0983333,61.405 L71.0983333,46.3638889 C71.0983333,45.7505556 71.5961111,45.2527778 72.2094444,45.2527778 L81.0638889,45.2527778 C82.6727778,45.2527778 84.0955556,46.2183333 84.6905556,47.7127778 C85.285,49.2066667 84.9138889,50.8866667 83.7455556,51.9916667 L72.9738889,62.2116667 C72.7633333,62.4111111 72.4883333,62.5161111 72.2094444,62.5161111 Z M73.3205556,47.475 L73.3205556,58.8194444 L82.2177778,50.3783333 C82.9883333,49.65 82.725,48.7827778 82.6261111,48.5344444 C82.5266667,48.2855556 82.1222222,47.475 81.0638889,47.475 L73.3205556,47.475 Z" id="Shape" fill="#8C94A8"></path>
                <path d="M72.2094444,99.8527778 C72.0611111,99.8527778 71.9122222,99.8233333 71.7705556,99.7622222 C71.3627778,99.5872222 71.0983333,99.1855556 71.0983333,98.7416667 L71.0983333,83.7 C71.0983333,83.0866667 71.5961111,82.5888889 72.2094444,82.5888889 L81.0638889,82.5888889 C82.6727778,82.5888889 84.0955556,83.5544444 84.69,85.0488889 C85.285,86.5433333 84.9138889,88.2227778 83.7455556,89.3277778 L72.9738889,99.5477778 C72.7633333,99.7477778 72.4883333,99.8527778 72.2094444,99.8527778 Z M73.3205556,84.8111111 L73.3205556,96.1561111 L82.2177778,87.715 C82.9883333,86.9866667 82.725,86.1194444 82.6261111,85.8711111 C82.5266667,85.6227778 82.1222222,84.8116667 81.0638889,84.8116667 L73.3205556,84.8116667 L73.3205556,84.8111111 Z" id="Shape" fill="#8C94A8"></path>
                <path d="M42.5,83.7 C41.9333333,83.7 41.375,83.7338889 40.825,83.795 C48.3433333,84.6283333 54.1916667,91.0005556 54.1916667,98.7416667 C54.1916667,106.482222 48.3438889,112.854444 40.825,113.688333 C41.375,113.749444 41.9333333,113.783333 42.5,113.783333 C50.8072222,113.783333 57.5416667,107.048889 57.5416667,98.7416667 C57.5416667,90.4344444 50.8072222,83.7 42.5,83.7 Z" id="Path" fill="#000000" opacity="0.1"></path>
                <path d="M42.5,113.783333 C43.0666667,113.783333 43.625,113.749444 44.175,113.688333 C36.6566667,112.855 30.8083333,106.482778 30.8083333,98.7416667 C30.8083333,91.0011111 36.6561111,84.6288889 44.175,83.795 C43.6244444,83.7338889 43.0666667,83.7 42.5,83.7 C34.1927778,83.7 27.4583333,90.4344444 27.4583333,98.7416667 C27.4583333,107.048889 34.1927778,113.783333 42.5,113.783333 Z" id="Path" fill="#FFFFFF" opacity="0.4"></path>
                <path d="M42.5,46.3633333 C41.9333333,46.3633333 41.375,46.3977778 40.825,46.4583333 C48.3433333,47.2916667 54.1916667,53.6638889 54.1916667,61.405 C54.1916667,69.1455556 48.3438889,75.5177778 40.825,76.3516667 C41.375,76.4127778 41.9333333,76.4466667 42.5,76.4466667 C50.8072222,76.4466667 57.5416667,69.7122222 57.5416667,61.405 C57.5416667,53.0977778 50.8072222,46.3633333 42.5,46.3633333 Z" id="Path" fill="#000000" opacity="0.1"></path>
                <path d="M42.5,76.4466667 C43.0666667,76.4466667 43.625,76.4127778 44.175,76.3516667 C36.6566667,75.5183333 30.8083333,69.1461111 30.8083333,61.405 C30.8083333,53.6644444 36.6561111,47.2922222 44.175,46.4583333 C43.6244444,46.3972222 43.0666667,46.3633333 42.5,46.3633333 C34.1927778,46.3633333 27.4583333,53.0977778 27.4583333,61.405 C27.4583333,69.7122222 34.1927778,76.4466667 42.5,76.4466667 Z" id="Path" fill="#FFFFFF" opacity="0.4"></path>
                <path d="M42.5,9.02722222 C41.9333333,9.02722222 41.375,9.06111111 40.825,9.12222222 C48.3433333,9.95555556 54.1916667,16.3277778 54.1916667,24.0688889 C54.1916667,31.8094444 48.3438889,38.1816667 40.825,39.0155556 C41.375,39.0766667 41.9333333,39.1105556 42.5,39.1105556 C50.8072222,39.1105556 57.5416667,32.3761111 57.5416667,24.0688889 C57.5416667,15.7611111 50.8072222,9.02722222 42.5,9.02722222 Z" id="Path" fill="#000000" opacity="0.1"></path>
                <path d="M42.5,39.11 C43.0666667,39.11 43.625,39.0755556 44.175,39.015 C36.6566667,38.1816667 30.8083333,31.8094444 30.8083333,24.0683333 C30.8083333,16.3277778 36.6561111,9.95555556 44.175,9.12166667 C43.6244444,9.06055556 43.0666667,9.02666667 42.5,9.02666667 C34.1927778,9.02666667 27.4583333,15.7611111 27.4583333,24.0683333 C27.4583333,32.3755556 34.1927778,39.11 42.5,39.11 Z" id="Path" fill="#FFFFFF" opacity="0.4"></path>
                <path d="M42.5,114.894444 C33.5933333,114.894444 26.3472222,107.648333 26.3472222,98.7416667 C26.3472222,89.835 33.5933333,82.5888889 42.5,82.5888889 C51.4066667,82.5888889 58.6527778,89.835 58.6527778,98.7416667 C58.6527778,107.648333 51.4066667,114.894444 42.5,114.894444 Z M42.5,84.8111111 C34.8188889,84.8111111 28.5694444,91.0605556 28.5694444,98.7416667 C28.5694444,106.422778 34.8188889,112.672222 42.5,112.672222 C50.1811111,112.672222 56.4305556,106.422778 56.4305556,98.7416667 C56.4305556,91.0605556 50.1811111,84.8111111 42.5,84.8111111 Z" id="Shape" fill="#8C94A8"></path>
                <path d="M42.5,77.5577778 C33.5933333,77.5577778 26.3472222,70.3116667 26.3472222,61.405 C26.3472222,52.4983333 33.5933333,45.2527778 42.5,45.2527778 C51.4066667,45.2527778 58.6527778,52.4988889 58.6527778,61.4055556 C58.6527778,70.3122222 51.4066667,77.5577778 42.5,77.5577778 Z M42.5,47.475 C34.8188889,47.475 28.5694444,53.7244444 28.5694444,61.4055556 C28.5694444,69.0866667 34.8188889,75.3361111 42.5,75.3361111 C50.1811111,75.3361111 56.4305556,69.0866667 56.4305556,61.4055556 C56.4305556,53.7244444 50.1811111,47.475 42.5,47.475 Z" id="Shape" fill="#8C94A8"></path>
                <path d="M42.5,40.2211111 C33.5933333,40.2211111 26.3472222,32.975 26.3472222,24.0683333 C26.3472222,15.1616667 33.5933333,7.91555556 42.5,7.91555556 C51.4066667,7.91555556 58.6527778,15.1616667 58.6527778,24.0683333 C58.6527778,32.975 51.4066667,40.2211111 42.5,40.2211111 Z M42.5,10.1383333 C34.8188889,10.1383333 28.5694444,16.3877778 28.5694444,24.0688889 C28.5694444,31.7505556 34.8188889,37.9994444 42.5,37.9994444 C50.1811111,37.9994444 56.4305556,31.75 56.4305556,24.0688889 C56.4305556,16.3872222 50.1811111,10.1383333 42.5,10.1383333 Z" id="Shape" fill="#8C94A8"></path>
            </g>
        </g>
    </g>
</svg>