<svg width="102" height="61" viewBox="0 0 102 61" fill="none" xmlns="http://www.w3.org/2000/svg">
<path fill-rule="evenodd" clip-rule="evenodd" d="M97.7039 9.24976C99.9559 9.24976 101.782 11.0754 101.782 13.3274C101.782 15.5795 99.9559 17.4051 97.7039 17.4051H74.4029C76.655 17.4051 78.4806 19.2307 78.4806 21.4828C78.4806 23.7348 76.655 25.5604 74.4029 25.5604H87.2185C89.4705 25.5604 91.2961 27.3861 91.2961 29.6381C91.2961 31.8901 89.4705 33.7158 87.2185 33.7158H81.2919C78.4524 33.7158 76.1505 35.5414 76.1505 37.7934C76.1505 39.2948 77.3155 40.654 79.6456 41.8711C81.8977 41.8711 83.7233 43.6968 83.7233 45.9488C83.7233 48.2008 81.8977 50.0265 79.6456 50.0265H31.2961C29.0441 50.0265 27.2185 48.2008 27.2185 45.9488C27.2185 43.6968 29.0441 41.8711 31.2961 41.8711H8.57767C6.32564 41.8711 4.5 40.0455 4.5 37.7934C4.5 35.5414 6.32564 33.7158 8.57767 33.7158H31.8786C34.1307 33.7158 35.9563 31.8901 35.9563 29.6381C35.9563 27.3861 34.1307 25.5604 31.8786 25.5604H17.3155C15.0635 25.5604 13.2379 23.7348 13.2379 21.4828C13.2379 19.2307 15.0635 17.4051 17.3155 17.4051H40.6165C38.3645 17.4051 36.5388 15.5795 36.5388 13.3274C36.5388 11.0754 38.3645 9.24976 40.6165 9.24976H97.7039ZM97.7039 25.5604C99.9559 25.5604 101.782 27.3861 101.782 29.6381C101.782 31.8901 99.9559 33.7158 97.7039 33.7158C95.4519 33.7158 93.6262 31.8901 93.6262 29.6381C93.6262 27.3861 95.4519 25.5604 97.7039 25.5604Z" fill="#F3F7FF"/>
<path fill-rule="evenodd" clip-rule="evenodd" d="M62.1391 9.15515L67.5576 48.6752L68.0445 52.64C68.2013 53.9173 67.293 55.0799 66.0157 55.2367L31.9029 59.4252C30.6257 59.5821 29.4631 58.6738 29.3062 57.3965L24.0543 14.6232C23.9759 13.9845 24.4301 13.4032 25.0687 13.3248C25.0728 13.3243 25.0768 13.3238 25.0808 13.3233L27.9109 13.0059L62.1391 9.15515ZM30.1994 12.7492L32.8715 12.4495Z" fill="white"/>
<path d="M30.1994 12.7492L32.8715 12.4495M62.1391 9.15515L67.5576 48.6752L68.0445 52.64C68.2013 53.9173 67.293 55.0799 66.0157 55.2367L31.9029 59.4252C30.6257 59.5821 29.4631 58.6738 29.3062 57.3965L24.0543 14.6232C23.9759 13.9845 24.4301 13.4032 25.0687 13.3248C25.0728 13.3243 25.0768 13.3238 25.0808 13.3233L27.9109 13.0059L62.1391 9.15515Z" stroke="#75A4FE" stroke-width="1.5" stroke-linecap="round"/>
<path fill-rule="evenodd" clip-rule="evenodd" d="M60.6642 11.6422L65.5688 47.4579L66.0099 51.0511C66.1521 52.2086 65.34 53.2608 64.1962 53.4013L33.6475 57.1522C32.5036 57.2926 31.4611 56.4681 31.319 55.3106L26.5714 16.6446C26.493 16.006 26.9472 15.4247 27.5858 15.3463L31.365 14.8823" fill="#E8F0FE"/>
<path fill-rule="evenodd" clip-rule="evenodd" d="M63.6284 1.72803H37.0905C36.6481 1.72803 36.2476 1.90733 35.9577 2.19723C35.6678 2.48712 35.4885 2.88761 35.4885 3.32997V47.6018C35.4885 48.0442 35.6678 48.4447 35.9577 48.7346C36.2476 49.0245 36.6481 49.2038 37.0905 49.2038H71.4594C71.9018 49.2038 72.3023 49.0245 72.5922 48.7346C72.882 48.4447 73.0614 48.0442 73.0614 47.6018V11.1561C73.0614 10.7311 72.8924 10.3235 72.5918 10.023L64.7608 2.19687C64.4604 1.89667 64.0531 1.72803 63.6284 1.72803Z" fill="white" stroke="#75A4FE" stroke-width="1.5"/>
<path d="M63.8865 2.39966V9.15529C63.8865 10.1204 64.6689 10.9029 65.634 10.9029H70.2555" stroke="#75A4FE" stroke-width="1.5" stroke-linecap="round" stroke-linejoin="round"/>
<path d="M41.7505 40.6116H56.8961M41.7505 10.9028H56.8961H41.7505ZM41.7505 17.8931H66.799H41.7505ZM41.7505 25.4659H66.799H41.7505ZM41.7505 33.0388H66.799H41.7505Z" stroke="#A4C3FE" stroke-width="2" stroke-linecap="round" stroke-linejoin="round"/>
<path d="M68.1147 52.1807C76.1353 52.1807 82.6372 45.6787 82.6372 37.6582C82.6372 29.6377 76.1353 23.1357 68.1147 23.1357C60.0942 23.1357 53.5923 29.6377 53.5923 37.6582C53.5923 45.6787 60.0942 52.1807 68.1147 52.1807Z" fill="#F3F7FF" stroke="#75A4FE" stroke-width="1.5"/>
<path fill-rule="evenodd" clip-rule="evenodd" d="M65.7876 48.9266C66.55 49.0673 67.3257 49.1405 68.1146 49.146C74.4592 49.146 79.6026 44.0027 79.6026 37.6581C79.6026 31.3135 74.4592 26.1702 68.1146 26.1702C66.4848 26.1702 64.9342 26.5096 63.5298 27.1216C61.0892 28.185 59.0897 30.0717 57.8821 32.4308C57.0795 33.9988 56.6267 35.7756 56.6267 37.6581C56.6267 39.3661 56.9995 40.9871 57.6681 42.444C58.1454 43.4842 58.7735 44.4408 59.5244 45.2859" fill="white"/>
<path d="M65.7876 48.9266C66.55 49.0673 67.3257 49.1405 68.1146 49.146C74.4592 49.146 79.6026 44.0027 79.6026 37.6581C79.6026 31.3135 74.4592 26.1702 68.1146 26.1702C66.4848 26.1702 64.9342 26.5096 63.5298 27.1216C61.0892 28.185 59.0897 30.0717 57.8821 32.4308C57.0795 33.9988 56.6267 35.7756 56.6267 37.6581C56.6267 39.3661 56.9995 40.9871 57.6681 42.444C58.1454 43.4842 58.7735 44.4408 59.5244 45.2859" stroke="#75A4FE" stroke-width="1.5" stroke-linecap="round"/>
<path d="M60.874 46.5774C61.8053 47.3343 62.8573 47.9483 63.9968 48.3859" stroke="#75A4FE" stroke-width="1.5" stroke-linecap="round"/>
<path d="M68.3316 29.6384C67.5848 29.6384 66.8612 29.7378 66.1733 29.9241C62.6712 30.8724 60.095 34.0729 60.095 37.8751" stroke="#A4C3FE" stroke-width="1.5" stroke-linecap="round"/>
<path d="M79.0361 47.1462L81.6372 49.7473" stroke="#75A4FE" stroke-width="2"/>
<path fill-rule="evenodd" clip-rule="evenodd" d="M84.0563 49.4585C83.6824 49.0846 83.1924 48.8977 82.7024 48.8977C82.2123 48.8977 81.7223 49.0846 81.3484 49.4585C80.9745 49.8324 80.7876 50.3224 80.7876 50.8125C80.7876 51.3025 80.9745 51.7925 81.3484 52.1664L86.154 56.9719C86.5278 57.3458 87.0179 57.5328 87.5079 57.5328C87.9979 57.5328 88.488 57.3458 88.8618 56.9719C89.2357 56.5981 89.4227 56.108 89.4227 55.618C89.4227 55.128 89.2357 54.6379 88.8618 54.2641L84.0563 49.4585Z" fill="#E8F0FE" stroke="#75A4FE" stroke-width="1.5"/>
</svg>
